# xmcd CD database file
#
# Track frame offsets:
#	150
#	33219
#	61707
#	96213
#	115256
#	141617
#	168022
#	206434
#	224297
#	257726
#
# Disc length: 3831 seconds
#
# Revision: 0
# Processed by: cddbd v1.5.2PL0 Copyright (c) Steve Scherf et al.
# Submitted via: CDex 1.51
#
DISCID=890ef50a
DTITLE=Donny McCaslin - Casting For Gravity
DYEAR=2012
DGENRE=Jazz
TTITLE0=Stadium Jazz
TTITLE1=Says Who
TTITLE2=Losing Track Of Daytime
TTITLE3=Alpha And Omega
TTITLE4=Tension
TTITLE5=Praia Grande
TTITLE6=Love Song For An Echo
TTITLE7=Casting For Gravity
TTITLE8=Bend
TTITLE9=Henry
EXTD=YEAR: 2012
EXTT0=
EXTT1=
EXTT2=
EXTT3=
EXTT4=
EXTT5=
EXTT6=
EXTT7=
EXTT8=
EXTT9=
PLAYORDER=
